<?xml version="1.0" ?>
<svg viewBox="0 0 128 128" xmlns="http://www.w3.org/2000/svg">
    <title/>
    <g data-name="Eyeglass Mask" id="b4d34452-09fe-470c-a9df-7af1071edcce">
        <line fill="none" stroke="#a81e49" stroke-linecap="round" stroke-linejoin="round" stroke-width="4" x1="104"
              x2="104" y1="23" y2="110"/>
        <path d="M92,90l-1-4c0,10-11,20-11,20l-1-2a25.36,25.36,0,0,1-13,7c-3-1-9-7-9-7l2,4c-8-3-16-18-16-18l-2,4c-8-7-9-27-9-27a7.2,7.2,0,0,1,.49-1c3.8-7,17.14-7,30.13-7.07C76.25,58.75,93,60,96,71a20.7,20.7,0,0,1,.53,2.55A21.88,21.88,0,0,1,92,90Z"
              fill="#45a2de"/>
        <path d="M96.53,73.55A22.21,22.21,0,0,1,92,84l-1-4c0,10-11,20-11,20l-1-2a25.36,25.36,0,0,1-13,7c-3-1-9-7-9-7l2,4c-8-3-16-18-16-18l-2,4c-5.47-4.79-7.67-15.66-8.51-22,3.8-7,17.14-7,30.13-7.07C76.25,58.75,93,60,96,71A20.7,20.7,0,0,1,96.53,73.55Z"
              fill="#4bb0f0"/>
        <polygon fill="#fecf59" points="74 59 54 59 59 34 69 34 74 59"/>
        <path d="M97.56,27H75a7.72,7.72,0,0,0-7.21,5H60.39A7.73,7.73,0,0,0,53,26.5H30.44a6.17,6.17,0,0,0-6.16,6.16V42.74a7.74,7.74,0,0,0,7.8,7.72h0l20.13-.83A7.73,7.73,0,0,0,59.89,42l.65-6h6.87l.71,6.53a7.73,7.73,0,0,0,7.67,7.6L96,51a7.73,7.73,0,0,0,7.72-7.72V33.16A6.17,6.17,0,0,0,97.56,27ZM55.9,41.7a2,2,0,0,0,0,.21,3.72,3.72,0,0,1-3.72,3.72h-.08L32,46.46a3.72,3.72,0,0,1-3.72-3.72V32.66a2.16,2.16,0,0,1,2.16-2.16H53a3.72,3.72,0,0,1,3.72,3.62Zm43.82,1.55A3.71,3.71,0,0,1,96.08,47l-20.17-.83h-.08a3.72,3.72,0,0,1-3.72-3.72,2,2,0,0,0,0-.21l-.82-7.58A3.72,3.72,0,0,1,75,31H97.56a2.16,2.16,0,0,1,2.16,2.16Z"
              fill="#4b40ad"/>
        <path d="M98.09,63c-6.77-4.74-23.54-8.48-29.14-9.63a4.15,4.15,0,0,0-4.47,1.93l-.47.87-.47-.87a4.15,4.15,0,0,0-4.47-1.93c-5.6,1.15-22.37,4.89-29.14,9.63-10,7-6,8-6,8s10,2,13,0a29.58,29.58,0,0,0,4-3s2,4,6,4,7-4,7-4a8.76,8.76,0,0,0,6,2c2.17,0,3.39-2.27,4.09-4.83.7,2.56,1.92,4.83,4.09,4.83a8.76,8.76,0,0,0,6-2s3,4,7,4,6-4,6-4a29.58,29.58,0,0,0,4,3c3,2,13,0,13,0S108.09,70,98.09,63Z"
              fill="#73c9ff"/>
        <rect fill="#4b40ad" height="7" rx="2.5" ry="2.5" width="5" x="102" y="35"/>
        <rect fill="#4b40ad" height="7" rx="2.5" ry="2.5" width="5" x="21" y="35"/>
    </g>
</svg>