<?xml version="1.0" ?>
<svg viewBox="0 0 128 128" xmlns="http://www.w3.org/2000/svg">
    <title/>
    <g data-name="Soda" id="f637fb7e-92b2-4a90-9f6a-91958e70a375">
        <path d="M95.77,48.34H87a8.24,8.24,0,0,0-8.23,8.23V87.3A8.25,8.25,0,0,0,87,95.54h8.78A8.25,8.25,0,0,0,104,87.3V56.57A8.24,8.24,0,0,0,95.77,48.34Zm3.84,39a3.85,3.85,0,0,1-3.84,3.85H87a3.85,3.85,0,0,1-3.84-3.85V56.57A3.85,3.85,0,0,1,87,52.73h8.78a3.85,3.85,0,0,1,3.84,3.84Z"
              fill="#e6f5fa"/>
        <path d="M83.15,56.57V87.3A3.85,3.85,0,0,0,87,91.15h6v4.39H87a8.25,8.25,0,0,1-8.23-8.24V56.57A8.24,8.24,0,0,1,87,48.34h6v4.39H87A3.85,3.85,0,0,0,83.15,56.57Z"
              fill="#bbeafa"/>
        <rect fill="#e6f5fa" height="70.24" width="52.68" x="34.85" y="37.37"/>
        <path d="M85.34,40.3v60A4.39,4.39,0,0,1,81,104.68H41.44A4.39,4.39,0,0,1,37,100.29v-60Z" fill="#fac067"/>
        <path d="M78.76,40.3V93.7a4.39,4.39,0,0,1-4.39,4.39H37V40.3Z" fill="#fbc46e"/>
        <rect fill="#e1f0f5" height="4.39" width="50.49" x="35.95" y="107.61"/>
        <rect fill="#b1d6e3" height="1.1" width="50.49" x="35.95" y="107.61"/>
        <path d="M87.5,37.17a12.83,12.83,0,0,0-21.09-9.82,12.81,12.81,0,0,0-22.75,4,8.7,8.7,0,0,0-8.52,10.24,2.88,2.88,0,0,0-.14.84V55.25a2.92,2.92,0,1,0,5.83,0v5.83a2.92,2.92,0,0,0,5.83,0V48.32A8.77,8.77,0,0,0,50,46.18a12.79,12.79,0,0,0,9.48,1v9.13a4.19,4.19,0,0,0,8.39,0V48A12.65,12.65,0,0,0,78.17,49.5v6.8a4.19,4.19,0,0,0,8.39,0V42A12.78,12.78,0,0,0,87.5,37.17Z"
              fill="#fbedd5"/>
        <circle cx="47.48" cy="80.72" fill="#f5b24c" r="1.65"/>
        <circle cx="56.8" cy="67" fill="#f5b24c" r="3.29"/>
        <circle cx="52.76" cy="31.95" fill="#fbfbfb" r="1.24"/>
        <circle cx="57.76" cy="25.95" fill="#fbfbfb" r="1.24"/>
        <circle cx="76.76" cy="30.95" fill="#fbfbfb" r="1.24"/>
        <circle cx="39.76" cy="37.95" fill="#fbfbfb" r="1.24"/>
        <circle cx="74.91" cy="55.48" fill="#f5b24c" r="2.74"/>
        <circle cx="72.17" cy="68.1" fill="#f5b24c" r="1.1"/>
    </g>
</svg>