<?xml version="1.0" ?>
<svg viewBox="0 0 128 128" xmlns="http://www.w3.org/2000/svg">
    <title/>
    <g data-name="Watch" id="6366f6f0-cfc5-490e-b2cb-67b53701ab88">
        <circle cx="64" cy="64" fill="#fe5959" r="48"/>
        <path d="M112,64a48,48,0,0,1-48,48V16A48,48,0,0,1,112,64Z" fill="#cc4a4a"/>
        <circle cx="64" cy="64" fill="#fee2e2" r="41"/>
        <path d="M105,64a41,41,0,0,1-41,41V23A41,41,0,0,1,105,64Z" fill="#fec9c9"/>
        <circle cx="64" cy="64" fill="#cc4a4a" r="5"/>
        <path d="M64.73,65.91A3.1,3.1,0,0,1,64,66a2.88,2.88,0,0,1-.59-.06,3,3,0,0,1-2.32-2.21l-2.9-11.59-4.1-16.41a3,3,0,1,1,5.82-1.46L61.09,39l.27,1.09,5.55,22.21A3,3,0,0,1,64.73,65.91Z"
              fill="#4bb0f0"/>
        <path d="M64.73,65.91A3.1,3.1,0,0,1,64,66a2.88,2.88,0,0,1-.59-.06,18.09,18.09,0,0,1-2-1.43,3,3,0,0,1-.32-.78L60,53c-.64-5.09-.87-10.17,1.36-12.94l5.55,22.21A3,3,0,0,1,64.73,65.91Z"
              fill="#3a88ba"/>
        <path d="M64,66a3,3,0,0,1-3-3V43a3,3,0,0,1,6,0V63A3,3,0,0,1,64,66Z" fill="#4bb0f0"/>
        <rect fill="#fbb850" height="4" width="6" x="25" y="61"/>
        <rect fill="#fbb850" height="4" width="6" x="96" y="61"/>
        <rect fill="#fbb850" height="4" transform="translate(91 -36) rotate(90)" width="6" x="60.5" y="25.5"/>
        <rect fill="#fbb850" height="4" transform="translate(162 35) rotate(90)" width="6" x="60.5" y="96.5"/>
    </g>
</svg>